# xmcd
#
# Track frame offsets:
#	150
#	32152
#	54071
#	77172
#	102028
#	127462
#	150279
#	177677
#	205976
#
# Disc length: 2982 seconds
#
# Revision: 1
# Processed by: cddbd v1.5.2PL0 Copyright (c) Steve Scherf et al.
# Submitted via: EZCDAudioConverter 8.0.2.1
#
DISCID=730ba409
DTITLE=Anh Thơ - Nhạc CM. Như Ta Có Thể
DYEAR=2007
DGENRE=country
TTITLE0=Lời nói đầu, Mưa xuân
TTITLE1=Tình đất
TTITLE2=Chiều sông Thương
TTITLE3=Cơn mưa sang đò
TTITLE4=Xa khơi
TTITLE5=Em yêu anh như yêu câu Ví Dặm
TTITLE6=Mái chèo thiên thu
TTITLE7=Ngẫu hứng sông Hồng
TTITLE8=Tháng ba Tây Nguyên
EXTD=
EXTT0=
EXTT1=
EXTT2=
EXTT3=
EXTT4=
EXTT5=
EXTT6=
EXTT7=
EXTT8=
PLAYORDER=
